<svg width="16" height="16" viewBox="0 0 16 16" fill="none" xmlns="http://www.w3.org/2000/svg">
<path d="M13.2668 9H2.7335C1.7335 9 1.3335 9.42667 1.3335 10.4867V13.18C1.3335 14.24 1.7335 14.6667 2.7335 14.6667H13.2668C14.2668 14.6667 14.6668 14.24 14.6668 13.18V10.4867C14.6668 9.42667 14.2668 9 13.2668 9Z" stroke="#373737" stroke-linecap="round" stroke-linejoin="round"/>
<path d="M13.2668 1.33337H2.7335C1.7335 1.33337 1.3335 1.76004 1.3335 2.82004V5.51337C1.3335 6.57337 1.7335 7.00004 2.7335 7.00004H13.2668C14.2668 7.00004 14.6668 6.57337 14.6668 5.51337V2.82004C14.6668 1.76004 14.2668 1.33337 13.2668 1.33337Z" stroke="#373737" stroke-linecap="round" stroke-linejoin="round"/>
</svg>
